<?xml version="1.0" encoding="UTF-8" standalone="no"?>
<!-- Created with Inkscape (http://www.inkscape.org/) -->

<svg
   width="101.6mm"
   height="128.5mm"
   viewBox="0 0 101.6 128.50002"
   version="1.1"
   id="svg8"
   inkscape:version="1.3 (0e150ed, 2023-07-21)"
   sodipodi:docname="melodygen.svg"
   xmlns:inkscape="http://www.inkscape.org/namespaces/inkscape"
   xmlns:sodipodi="http://sodipodi.sourceforge.net/DTD/sodipodi-0.dtd"
   xmlns="http://www.w3.org/2000/svg"
   xmlns:svg="http://www.w3.org/2000/svg"
   xmlns:rdf="http://www.w3.org/1999/02/22-rdf-syntax-ns#"
   xmlns:cc="http://creativecommons.org/ns#"
   xmlns:dc="http://purl.org/dc/elements/1.1/">
  <defs
     id="defs2">
    <rect
       x="279.16086"
       y="7.7544684"
       width="98.869472"
       height="32.310285"
       id="rect43" />
    <rect
       x="163.49004"
       y="268.82157"
       width="69.790216"
       height="18.739965"
       id="rect37" />
    <rect
       x="160.25901"
       y="265.59054"
       width="73.021244"
       height="19.386171"
       id="rect35" />
    <rect
       x="259.12849"
       y="166.07487"
       width="81.421918"
       height="18.739965"
       id="rect31" />
    <rect
       x="233.28026"
       y="284.97671"
       width="79.483301"
       height="32.956491"
       id="rect28" />
    <rect
       x="202.92893"
       y="421.32777"
       width="95.549495"
       height="41.859779"
       id="rect9" />
    <rect
       x="138.31927"
       y="118.29937"
       width="83.719557"
       height="47.31975"
       id="rect2" />
  </defs>
  <sodipodi:namedview
     id="base"
     pagecolor="#ffffff"
     bordercolor="#666666"
     borderopacity="1.0"
     inkscape:pageopacity="0.0"
     inkscape:pageshadow="2"
     inkscape:zoom="1.5474949"
     inkscape:cx="137.31871"
     inkscape:cy="233.60336"
     inkscape:document-units="mm"
     inkscape:current-layer="layer1"
     showgrid="false"
     units="mm"
     inkscape:snap-bbox="true"
     inkscape:snap-page="true"
     inkscape:bbox-nodes="false"
     inkscape:snap-bbox-edge-midpoints="false"
     inkscape:window-width="1600"
     inkscape:window-height="900"
     inkscape:window-x="149"
     inkscape:window-y="120"
     inkscape:window-maximized="0"
     inkscape:snap-bbox-midpoints="true"
     inkscape:snap-nodes="false"
     inkscape:showpageshadow="2"
     inkscape:pagecheckerboard="0"
     inkscape:deskcolor="#d1d1d1" />
  <metadata
     id="metadata5">
    <rdf:RDF>
      <cc:Work
         rdf:about="">
        <dc:format>image/svg+xml</dc:format>
        <dc:type
           rdf:resource="http://purl.org/dc/dcmitype/StillImage" />
      </cc:Work>
    </rdf:RDF>
  </metadata>
  <g
     inkscape:label="Layer 1"
     inkscape:groupmode="layer"
     id="layer1"
     transform="translate(0,-168.49998)">
    <rect
       style="display:inline;opacity:1;vector-effect:none;fill:#e6e6e6;fill-opacity:1;fill-rule:evenodd;stroke:none;stroke-width:1.18556;stroke-linecap:butt;stroke-linejoin:miter;stroke-miterlimit:4;stroke-dasharray:none;stroke-dashoffset:0;stroke-opacity:1;paint-order:normal"
       id="rect420"
       width="101.6"
       height="128.5"
       x="4.0280279e-15"
       y="168.49998" />
    <rect
       style="fill:#666666;stroke-width:0.268211"
       id="rect24"
       width="45.899292"
       height="23.169891"
       x="51.44949"
       y="264.70349" />
    <path
       style="font-weight:bold;font-size:7.05556px;line-height:4;-inkscape-font-specification:'sans-serif Bold';text-align:center;text-anchor:middle;stroke-width:0.264583"
       d="m 36.473561,176.20459 h -1.316027 v -3.43476 l -0.950847,2.22898 h -0.912951 l -0.950847,-2.22898 v 3.43476 h -1.247126 v -5.12975 h 1.536514 l 1.154108,2.57349 1.150662,-2.57349 h 1.536514 z m 5.050513,-1.70532 h -2.838761 q 0.02756,0.45475 0.34451,0.69591 0.320394,0.24115 0.940512,0.24115 0.392741,0 0.761366,-0.14125 0.368626,-0.14124 0.582222,-0.30316 h 0.137804 v 0.99563 q -0.420302,0.16881 -0.792373,0.2446 -0.37207,0.0758 -0.823378,0.0758 -1.164443,0 -1.784561,-0.52365 -0.620117,-0.52366 -0.620117,-1.49173 0,-0.95774 0.585666,-1.51584 0.589112,-0.56155 1.612306,-0.56155 0.943957,0 1.41938,0.47887 0.475424,0.47542 0.475424,1.37114 z m -1.233345,-0.72692 q -0.01033,-0.3893 -0.192926,-0.58567 -0.18259,-0.19637 -0.568441,-0.19637 -0.35829,0 -0.589111,0.18604 -0.230822,0.18603 -0.258383,0.596 z m 3.348634,2.43224 h -1.240235 v -5.36057 h 1.240235 z m 5.126306,-1.9327 q 0,0.95429 -0.558106,1.50551 -0.554661,0.54777 -1.560629,0.54777 -1.005969,0 -1.564074,-0.54777 -0.554661,-0.55122 -0.554661,-1.50551 0,-0.96118 0.558106,-1.50895 0.561551,-0.54777 1.560629,-0.54777 1.012859,0 1.564074,0.55121 0.554661,0.55122 0.554661,1.50551 z m -1.526178,0.94051 q 0.120578,-0.14814 0.179145,-0.35484 0.06201,-0.21015 0.06201,-0.57878 0,-0.34106 -0.06201,-0.57189 -0.06201,-0.23082 -0.172255,-0.36862 -0.110243,-0.14125 -0.265273,-0.19982 -0.155029,-0.0586 -0.334174,-0.0586 -0.179145,0 -0.320394,0.0482 -0.137804,0.0482 -0.265273,0.19292 -0.113688,0.13436 -0.18259,0.36863 -0.06546,0.23427 -0.06546,0.58911 0,0.31695 0.05857,0.55122 0.05857,0.23082 0.172255,0.37207 0.110243,0.13436 0.261827,0.19637 0.15503,0.062 0.3514,0.062 0.16881,0 0.320394,-0.0551 0.15503,-0.0586 0.261828,-0.19293 z m 6.177061,0.99219 h -1.240236 v -0.40308 q -0.320394,0.26183 -0.599447,0.38585 -0.279052,0.12403 -0.644233,0.12403 -0.706245,0 -1.129992,-0.54433 -0.423747,-0.54432 -0.423747,-1.46761 0,-0.49265 0.141249,-0.87161 0.144694,-0.3824 0.392741,-0.65457 0.234267,-0.25838 0.568441,-0.39963 0.334175,-0.14469 0.668349,-0.14469 0.347955,0 0.568441,0.0758 0.223932,0.0724 0.458198,0.18603 v -1.64675 h 1.240236 z m -1.240236,-1.06798 v -1.89825 q -0.130913,-0.0551 -0.275607,-0.0792 -0.144694,-0.0241 -0.265273,-0.0241 -0.489204,0 -0.733806,0.30661 -0.244602,0.30317 -0.244602,0.84405 0,0.56844 0.196371,0.82682 0.196371,0.25494 0.630453,0.25494 0.16881,0 0.35829,-0.062 0.18948,-0.0655 0.334174,-0.16881 z m 3.651804,1.06798 h -1.240235 v -3.86884 h 1.240235 z m 0.03445,-4.42006 h -1.309137 v -0.94051 h 1.309137 z m 4.898928,3.97564 q 0,0.54433 -0.155029,0.9164 -0.155029,0.37207 -0.434082,0.58222 -0.279053,0.2136 -0.675239,0.30661 -0.392742,0.0965 -0.888836,0.0965 -0.403076,0 -0.795817,-0.0482 -0.389296,-0.0482 -0.675239,-0.11713 v -0.96807 h 0.151584 q 0.227376,0.0896 0.554661,0.16192 0.327284,0.0758 0.585666,0.0758 0.34451,0 0.558106,-0.0655 0.217041,-0.062 0.33073,-0.17914 0.106798,-0.11024 0.155029,-0.2825 0.04823,-0.17225 0.04823,-0.41341 v -0.0724 q -0.223931,0.18259 -0.496094,0.28939 -0.272162,0.1068 -0.606337,0.1068 -0.813043,0 -1.254016,-0.48921 -0.440972,-0.4892 -0.440972,-1.48828 0,-0.47887 0.134359,-0.82682 0.134359,-0.34796 0.378961,-0.60634 0.227376,-0.24116 0.558105,-0.37551 0.334175,-0.13436 0.68213,-0.13436 0.313504,0 0.568441,0.0758 0.258382,0.0724 0.468533,0.20326 l 0.04479,-0.17225 h 1.202339 z m -1.240235,-0.77514 v -1.75356 q -0.106798,-0.0448 -0.261827,-0.0689 -0.15503,-0.0276 -0.279053,-0.0276 -0.489204,0 -0.733806,0.2825 -0.244602,0.27905 -0.244602,0.78203 0,0.55811 0.206706,0.7786 0.210151,0.22048 0.620118,0.22048 0.186035,0 0.36518,-0.0586 0.179145,-0.0586 0.327284,-0.15502 z m 6.221847,-0.48576 H 62.90435 q 0.02756,0.45475 0.34451,0.69591 0.320394,0.24115 0.940512,0.24115 0.392741,0 0.761367,-0.14125 0.368625,-0.14124 0.582221,-0.30316 h 0.137804 v 0.99563 q -0.420302,0.16881 -0.792373,0.2446 -0.37207,0.0758 -0.823378,0.0758 -1.164443,0 -1.784561,-0.52365 -0.620117,-0.52366 -0.620117,-1.49173 0,-0.95774 0.585667,-1.51584 0.589111,-0.56155 1.612305,-0.56155 0.943957,0 1.41938,0.47887 0.475424,0.47542 0.475424,1.37114 z m -1.233345,-0.72692 q -0.01033,-0.3893 -0.192925,-0.58567 -0.182591,-0.19637 -0.568442,-0.19637 -0.35829,0 -0.589111,0.18604 -0.230822,0.18603 -0.258383,0.596 z m 5.99447,2.43224 h -1.247125 v -1.91892 q 0,-0.23427 -0.02412,-0.46509 -0.02412,-0.23426 -0.08268,-0.34451 -0.0689,-0.12747 -0.203261,-0.18603 -0.130914,-0.0586 -0.368625,-0.0586 -0.16881,0 -0.34451,0.0551 -0.172255,0.0551 -0.375516,0.1757 v 2.7423 h -1.240235 v -3.86884 h 1.240235 v 0.42719 q 0.33073,-0.25839 0.633898,-0.39619 0.306614,-0.1378 0.678685,-0.1378 0.627007,0 0.978407,0.36518 0.354845,0.36518 0.354845,1.09209 z"
       id="text1"
       aria-label="Melodigen" />
    <path
       d="m 46.953541,186.47587 q 0,0.36897 -0.30627,0.60531 -0.303858,0.23633 -0.831992,0.23633 -0.299035,0 -0.549839,-0.0699 -0.248391,-0.0724 -0.417202,-0.15675 v -0.50885 h 0.02412 q 0.21463,0.16158 0.477492,0.25804 0.262861,0.0941 0.504018,0.0941 0.299035,0 0.467845,-0.0965 0.16881,-0.0965 0.16881,-0.30386 0,-0.15916 -0.09164,-0.24116 -0.09164,-0.082 -0.352089,-0.13987 -0.09646,-0.0217 -0.253215,-0.0506 -0.154341,-0.0289 -0.282154,-0.0627 -0.354501,-0.094 -0.504019,-0.27492 -0.147106,-0.18328 -0.147106,-0.44855 0,-0.1664 0.06752,-0.31351 0.06994,-0.1471 0.209807,-0.26286 0.135048,-0.11334 0.342443,-0.17845 0.209807,-0.0675 0.467845,-0.0675 0.241158,0 0.487138,0.0603 0.248392,0.0579 0.412379,0.14228 v 0.48473 h -0.02412 q -0.173633,-0.12781 -0.422025,-0.21463 -0.248392,-0.0892 -0.487138,-0.0892 -0.248392,0 -0.419613,0.0965 -0.171222,0.0941 -0.171222,0.28216 0,0.1664 0.103698,0.2508 0.101286,0.0844 0.327974,0.13746 0.125401,0.0289 0.279742,0.0579 0.156752,0.0289 0.26045,0.0531 0.315916,0.0724 0.487137,0.2484 0.171222,0.17845 0.171222,0.47266 z m 2.640672,0.60772 q -0.226688,0.10852 -0.431672,0.16881 -0.202572,0.0603 -0.431671,0.0603 -0.2918,0 -0.535369,-0.0844 -0.243569,-0.0868 -0.417202,-0.26045 -0.176045,-0.17363 -0.272508,-0.4389 -0.09646,-0.26527 -0.09646,-0.61978 0,-0.66077 0.361736,-1.03697 0.364147,-0.37621 0.959806,-0.37621 0.231511,0 0.453375,0.0651 0.224277,0.0651 0.409968,0.15916 v 0.50402 h -0.02412 q -0.207395,-0.16158 -0.42926,-0.24839 -0.219453,-0.0868 -0.42926,-0.0868 -0.385851,0 -0.610128,0.26045 -0.221864,0.25804 -0.221864,0.75964 0,0.48714 0.217041,0.75 0.219453,0.26045 0.614951,0.26045 0.13746,0 0.279743,-0.0362 0.142282,-0.0362 0.255626,-0.0941 0.09887,-0.0506 0.185691,-0.10611 0.08682,-0.0579 0.13746,-0.0989 h 0.02412 z m 2.674433,0.16881 h -0.450964 v -0.28698 q -0.06029,0.041 -0.163987,0.11576 -0.101286,0.0724 -0.197749,0.11575 -0.113344,0.0555 -0.260449,0.0916 -0.147106,0.0386 -0.344855,0.0386 -0.364148,0 -0.617363,-0.24116 -0.253215,-0.24116 -0.253215,-0.61495 0,-0.30627 0.130225,-0.49437 0.132637,-0.19052 0.376205,-0.29904 0.245981,-0.10852 0.590836,-0.1471 0.344854,-0.0386 0.740352,-0.0579 v -0.0699 q 0,-0.15434 -0.05547,-0.25562 -0.05306,-0.10129 -0.154341,-0.15917 -0.09646,-0.0555 -0.231511,-0.0747 -0.135048,-0.0193 -0.282153,-0.0193 -0.178457,0 -0.39791,0.0482 -0.219453,0.0458 -0.453375,0.13505 h -0.02412 v -0.46061 q 0.132636,-0.0362 0.38344,-0.0796 0.250803,-0.0434 0.494372,-0.0434 0.284566,0 0.494372,0.0482 0.212219,0.0458 0.366559,0.15917 0.151929,0.11093 0.231511,0.28697 0.07958,0.17605 0.07958,0.4365 z m -0.450964,-0.66318 v -0.75 q -0.207395,0.0121 -0.489549,0.0362 -0.279742,0.0241 -0.443729,0.0699 -0.195338,0.0555 -0.315916,0.17363 -0.120579,0.11576 -0.120579,0.32074 0,0.23151 0.139871,0.34968 0.139872,0.11575 0.426849,0.11575 0.238745,0 0.436494,-0.0916 0.197749,-0.094 0.366559,-0.22427 z m 1.782152,0.66318 h -0.453376 v -3.75241 h 0.453376 z m 3.151925,-1.29984 h -1.984724 q 0,0.24839 0.07476,0.43409 0.07476,0.18328 0.204983,0.30144 0.125402,0.11576 0.296624,0.17364 0.173633,0.0579 0.381028,0.0579 0.27492,0 0.55225,-0.10852 0.279743,-0.11093 0.39791,-0.21704 h 0.02412 v 0.49437 q -0.229099,0.0965 -0.467845,0.16158 -0.238745,0.0651 -0.501607,0.0651 -0.670417,0 -1.046622,-0.36173 -0.376205,-0.36415 -0.376205,-1.03216 0,-0.66077 0.359324,-1.04903 0.361736,-0.38826 0.95016,-0.38826 0.545015,0 0.839227,0.31832 0.296623,0.31833 0.296623,0.90434 z m -0.441318,-0.34726 q -0.0024,-0.35692 -0.180868,-0.55225 -0.176044,-0.19534 -0.53778,-0.19534 -0.364148,0 -0.581189,0.21463 -0.21463,0.21463 -0.243569,0.53296 z"
       id="text4"
       style="font-size:4.9389px;line-height:4;-inkscape-font-specification:sans-serif;text-align:center;text-anchor:middle;stroke-width:0.264583"
       aria-label="scale" />
    <path
       d="m 16.12228,215.2524 h -0.453375 v -0.28215 q -0.195338,0.16881 -0.407556,0.26286 -0.212218,0.0941 -0.46061,0.0941 -0.482315,0 -0.76688,-0.37138 -0.282154,-0.37139 -0.282154,-1.02974 0,-0.34245 0.09646,-0.61013 0.09887,-0.26769 0.265273,-0.45579 0.163987,-0.18328 0.381028,-0.27974 0.219453,-0.0965 0.453376,-0.0965 0.212218,0 0.376205,0.0458 0.163987,0.0434 0.344855,0.13745 v -1.1672 h 0.453375 z m -0.453375,-0.66318 v -1.54582 q -0.18328,-0.082 -0.327974,-0.11334 -0.144694,-0.0314 -0.315916,-0.0314 -0.381028,0 -0.593247,0.26527 -0.212218,0.26527 -0.212218,0.75241 0,0.4799 0.163987,0.73071 0.163987,0.24839 0.525723,0.24839 0.192925,0 0.390674,-0.0844 0.197749,-0.0868 0.368971,-0.22186 z m 1.832795,-2.48151 h -0.511253 v -0.47026 H 17.5017 Z m -0.02894,3.14469 h -0.453376 v -2.69373 h 0.453376 z m 2.821539,-0.77653 q 0,0.36897 -0.306269,0.60531 -0.303858,0.23633 -0.831993,0.23633 -0.299035,0 -0.549838,-0.0699 -0.248392,-0.0724 -0.417202,-0.15675 v -0.50885 h 0.02412 q 0.214629,0.16158 0.477491,0.25804 0.262861,0.0941 0.504018,0.0941 0.299035,0 0.467845,-0.0965 0.168811,-0.0965 0.168811,-0.30386 0,-0.15916 -0.09164,-0.24116 -0.09164,-0.082 -0.35209,-0.13987 -0.09646,-0.0217 -0.253215,-0.0506 -0.15434,-0.0289 -0.282154,-0.0627 -0.354501,-0.094 -0.504018,-0.27492 -0.147106,-0.18328 -0.147106,-0.44855 0,-0.1664 0.06752,-0.31351 0.06994,-0.1471 0.209807,-0.26286 0.135048,-0.11334 0.342443,-0.17845 0.209807,-0.0675 0.467845,-0.0675 0.241157,0 0.487137,0.0603 0.248392,0.0579 0.412379,0.14228 v 0.48473 h -0.02412 q -0.173634,-0.12781 -0.422026,-0.21463 -0.248392,-0.0892 -0.487137,-0.0892 -0.248392,0 -0.419614,0.0965 -0.171221,0.0941 -0.171221,0.28216 0,0.1664 0.103697,0.2508 0.101286,0.0844 0.327974,0.13746 0.125402,0.0289 0.279742,0.0579 0.156753,0.0289 0.26045,0.0531 0.315916,0.0724 0.487138,0.2484 0.171221,0.17845 0.171221,0.47266 z m 1.487941,-2.36816 h -0.511254 v -0.47026 h 0.511254 z m -0.02894,3.2098 q 0,0.47267 -0.241157,0.71383 -0.241158,0.24116 -0.646302,0.24116 -0.09646,0 -0.255626,-0.0193 -0.156753,-0.0193 -0.262862,-0.0482 v -0.43167 h 0.02412 q 0.06752,0.0265 0.180868,0.0603 0.115755,0.0338 0.224276,0.0338 0.173633,0 0.279742,-0.0482 0.10611,-0.0482 0.159164,-0.14469 0.05306,-0.0965 0.06752,-0.23393 0.01688,-0.13505 0.01688,-0.33038 v -2.17042 h -0.561896 v -0.38103 h 1.015272 z m 3.122986,-0.0651 H 24.42291 v -0.29903 q -0.229099,0.18086 -0.438906,0.27733 -0.209806,0.0965 -0.463022,0.0965 -0.424436,0 -0.66077,-0.25804 -0.236334,-0.26045 -0.236334,-0.76206 v -1.74839 h 0.453375 v 1.53376 q 0,0.20499 0.01929,0.35209 0.01929,0.1447 0.08199,0.2484 0.06511,0.1061 0.16881,0.15434 0.103698,0.0482 0.301447,0.0482 0.176045,0 0.38344,-0.0916 0.209807,-0.0916 0.390674,-0.23392 v -2.01126 h 0.453376 z m 3.14469,0 h -0.453375 v -1.53376 q 0,-0.18569 -0.0217,-0.34727 -0.0217,-0.16398 -0.07958,-0.25562 -0.06029,-0.10129 -0.173634,-0.14952 -0.113343,-0.0506 -0.294211,-0.0506 -0.185691,0 -0.388263,0.0916 -0.202573,0.0916 -0.388264,0.23392 v 2.01125 h -0.453375 v -2.69373 h 0.453375 v 0.29904 q 0.212219,-0.17605 0.438907,-0.27492 0.226687,-0.0989 0.465433,-0.0989 0.436495,0 0.665594,0.26286 0.229099,0.26286 0.229099,0.75723 z m 2.864948,-0.16881 q -0.226688,0.10852 -0.431671,0.16881 -0.202572,0.0603 -0.431672,0.0603 -0.2918,0 -0.535369,-0.0844 -0.243569,-0.0868 -0.417202,-0.26045 -0.176045,-0.17363 -0.272507,-0.4389 -0.09646,-0.26527 -0.09646,-0.61978 0,-0.66077 0.361736,-1.03697 0.364147,-0.37621 0.959805,-0.37621 0.231511,0 0.453376,0.0651 0.224276,0.0651 0.409967,0.15916 v 0.50402 h -0.02412 q -0.207395,-0.16158 -0.429259,-0.24839 -0.219453,-0.0868 -0.42926,-0.0868 -0.385852,0 -0.610128,0.26045 -0.221865,0.25804 -0.221865,0.75964 0,0.48714 0.217042,0.75 0.219453,0.26045 0.614951,0.26045 0.137459,0 0.279742,-0.0362 0.142283,-0.0362 0.255627,-0.0941 0.09887,-0.0506 0.185691,-0.10611 0.08682,-0.0579 0.137459,-0.0989 h 0.02412 z m 1.9799,0.14469 q -0.127813,0.0338 -0.279742,0.0555 -0.149518,0.0217 -0.267685,0.0217 -0.412379,0 -0.627008,-0.22186 -0.21463,-0.22186 -0.21463,-0.71141 v -1.43248 h -0.30627 v -0.38103 h 0.30627 v -0.77411 h 0.453375 v 0.77411 h 0.93569 v 0.38103 h -0.93569 v 1.22749 q 0,0.21222 0.0096,0.3328 0.0096,0.11817 0.06752,0.22186 0.05305,0.0965 0.144694,0.14229 0.09405,0.0434 0.284565,0.0434 0.110933,0 0.231511,-0.0314 0.120579,-0.0338 0.173634,-0.0555 h 0.02411 z"
       id="text5"
       style="font-size:4.9389px;line-height:4;-inkscape-font-specification:sans-serif;text-align:center;text-anchor:middle;stroke-width:0.264583"
       aria-label="disjunct" />
    <path
       d="m 60.65499,284.06684 q -0.294212,0.13505 -0.64389,0.23634 -0.347266,0.0989 -0.672829,0.0989 -0.419613,0 -0.769291,-0.11576 -0.349678,-0.11575 -0.595659,-0.34726 -0.248391,-0.23392 -0.38344,-0.5836 -0.135048,-0.35209 -0.135048,-0.82235 0,-0.86093 0.501607,-1.35771 0.504019,-0.4992 1.381831,-0.4992 0.30627,0 0.624598,0.0748 0.320739,0.0724 0.689709,0.24839 v 0.56672 h -0.04341 q -0.07476,-0.0579 -0.217042,-0.15193 -0.142282,-0.094 -0.279742,-0.15675 -0.166398,-0.0748 -0.378617,-0.12299 -0.209807,-0.0506 -0.477491,-0.0506 -0.602893,0 -0.954983,0.38826 -0.349678,0.38585 -0.349678,1.04662 0,0.69695 0.366559,1.08521 0.366559,0.38585 0.998391,0.38585 0.231511,0 0.460611,-0.0458 0.23151,-0.0458 0.405144,-0.11817 v -0.88022 h -0.962218 v -0.41961 h 1.434886 z m 3.66559,0.26527 h -0.508842 l -0.35209,-1.0008 h -1.553052 l -0.35209,1.0008 H 61.06978 l 1.307072,-3.59083 h 0.636655 z m -1.008038,-1.41077 -0.62942,-1.76285 -0.631832,1.76285 z m 3.824754,-1.75562 H 65.85434 v 3.16639 h -0.477491 v -3.16639 h -1.282957 v -0.42444 h 3.043404 z m 2.848067,3.16639 H 67.61961 v -3.59083 h 2.365753 v 0.42444 h -1.888262 v 0.98392 h 1.888262 v 0.42444 h -1.888262 v 1.3336 h 1.888262 z"
       id="text11"
       style="font-size:4.9389px;line-height:4;-inkscape-font-specification:sans-serif;text-align:center;text-anchor:middle;stroke-width:0.264583"
       aria-label="GATE" />
    <path
       d="m 12.532397,283.89062 q -0.294212,0.13505 -0.64389,0.23634 -0.347266,0.0989 -0.672829,0.0989 -0.419613,0 -0.769291,-0.11576 -0.349678,-0.11575 -0.5956591,-0.34726 -0.248391,-0.23392 -0.3834403,-0.5836 -0.135048,-0.35209 -0.135048,-0.82235 0,-0.86093 0.5016073,-1.35771 0.5040191,-0.4992 1.3818311,-0.4992 0.30627,0 0.624598,0.0748 0.320739,0.0724 0.689709,0.24839 v 0.56672 h -0.04341 q -0.07476,-0.0579 -0.217042,-0.15193 -0.142282,-0.094 -0.279742,-0.15675 -0.166398,-0.0748 -0.378617,-0.12299 -0.209807,-0.0506 -0.477491,-0.0506 -0.602893,0 -0.954983,0.38826 -0.3496781,0.38585 -0.3496781,1.04662 0,0.69695 0.3665591,1.08521 0.366559,0.38585 0.998391,0.38585 0.231511,0 0.460611,-0.0458 0.23151,-0.0458 0.405144,-0.11817 v -0.88022 h -0.962218 v -0.41961 h 1.434886 z m 3.66559,0.26527 h -0.508842 l -0.35209,-1.0008 h -1.553052 l -0.35209,1.0008 h -0.484726 l 1.307072,-3.59083 h 0.636655 z m -1.008038,-1.41077 -0.62942,-1.76285 -0.631832,1.76285 z m 3.824754,-1.75562 h -1.282956 v 3.16639 h -0.477491 v -3.16639 h -1.282957 v -0.42444 h 3.043404 z m 2.848067,3.16639 h -2.365753 v -3.59083 h 2.365753 v 0.42444 h -1.888262 v 0.98392 h 1.888262 v 0.42444 h -1.888262 v 1.3336 h 1.888262 z"
       id="text11-5"
       style="font-size:4.9389px;line-height:4;-inkscape-font-specification:sans-serif;text-align:center;text-anchor:middle;stroke-width:0.264583"
       aria-label="GATE" />
    <path
       d="m 80.060036,280.66155 -1.307072,3.59083 h -0.636655 l -1.307072,-3.59083 h 0.511253 l 1.126204,3.15916 1.126205,-3.15916 z m 2.136653,-0.16158 -1.729097,4.48553 H 80.05039 l 1.721862,-4.48553 z m 3.32797,0.57396 q 0.219453,0.24116 0.335208,0.59083 0.118167,0.34968 0.118167,0.79341 0,0.44373 -0.120578,0.79582 -0.118167,0.34968 -0.332797,0.5836 -0.221865,0.24357 -0.525723,0.36656 -0.301447,0.12299 -0.68971,0.12299 -0.378617,0 -0.689709,-0.1254 -0.308682,-0.1254 -0.525723,-0.36415 -0.217042,-0.23875 -0.335209,-0.58601 -0.115755,-0.34727 -0.115755,-0.79341 0,-0.43891 0.115755,-0.78617 0.115756,-0.34968 0.33762,-0.59807 0.212219,-0.23634 0.525723,-0.36174 0.315916,-0.1254 0.687298,-0.1254 0.385852,0 0.692122,0.12781 0.308681,0.12541 0.523311,0.35933 z m -0.04341,1.38424 q 0,-0.69936 -0.313504,-1.07797 -0.313504,-0.38103 -0.856108,-0.38103 -0.547427,0 -0.860931,0.38103 -0.311093,0.37861 -0.311093,1.07797 0,0.70659 0.318327,1.0828 0.318328,0.37379 0.853697,0.37379 0.535369,0 0.851285,-0.37379 0.318327,-0.37621 0.318327,-1.0828 z m 4.027327,1.53376 q -0.132637,0.0579 -0.241158,0.10852 -0.106109,0.0506 -0.279742,0.10611 -0.147106,0.0458 -0.320739,0.0772 -0.171222,0.0338 -0.378617,0.0338 -0.390675,0 -0.711414,-0.10852 -0.318327,-0.11093 -0.554661,-0.34485 -0.231511,-0.2291 -0.361736,-0.58119 -0.130225,-0.3545 -0.130225,-0.82235 0,-0.44373 0.125402,-0.79341 0.125401,-0.34967 0.361735,-0.59083 0.2291,-0.23392 0.55225,-0.35691 0.325563,-0.12299 0.721061,-0.12299 0.289388,0 0.576365,0.0699 0.289389,0.0699 0.641479,0.24598 v 0.56672 h -0.03617 q -0.296623,-0.24839 -0.588424,-0.36173 -0.2918,-0.11335 -0.624597,-0.11335 -0.272508,0 -0.491961,0.0892 -0.217041,0.0868 -0.388263,0.27251 -0.166398,0.18087 -0.26045,0.4582 -0.09164,0.27492 -0.09164,0.63665 0,0.37862 0.101286,0.65113 0.103697,0.2725 0.265273,0.44373 0.16881,0.17845 0.393086,0.26527 0.226688,0.0844 0.477491,0.0844 0.344855,0 0.646302,-0.11816 0.301446,-0.11817 0.564308,-0.3545 h 0.03376 z m 3.236329,-2.90594 h -1.282957 v 3.16639 h -0.477491 v -3.16639 H 89.7015 v -0.42444 h 3.043405 z"
       id="text12"
       style="font-size:4.9389px;line-height:4;-inkscape-font-specification:sans-serif;text-align:center;text-anchor:middle;stroke-width:0.264583"
       aria-label="V/OCT" />
    <path
       d="m 17.831554,185.03831 h -0.02411 q -0.101286,-0.0241 -0.197749,-0.0338 -0.09405,-0.0121 -0.224276,-0.0121 -0.209807,0 -0.405145,0.0941 -0.195337,0.0916 -0.376205,0.23874 v 1.91238 h -0.453375 v -2.69373 h 0.453375 v 0.39791 q 0.270096,-0.21704 0.47508,-0.30627 0.207395,-0.0916 0.422025,-0.0916 0.118167,0 0.171222,0.007 0.05305,0.005 0.159163,0.0217 z m 2.433277,2.19936 h -0.450964 v -0.28698 q -0.06029,0.041 -0.163987,0.11576 -0.101286,0.0723 -0.197749,0.11575 -0.113344,0.0555 -0.26045,0.0916 -0.147106,0.0386 -0.344855,0.0386 -0.364147,0 -0.617362,-0.24116 -0.253215,-0.24116 -0.253215,-0.61495 0,-0.30627 0.130225,-0.49437 0.132636,-0.19052 0.376205,-0.29904 0.24598,-0.10852 0.590835,-0.1471 0.344855,-0.0386 0.740353,-0.0579 v -0.0699 q 0,-0.15434 -0.05547,-0.25562 -0.05306,-0.10129 -0.154341,-0.15917 -0.09646,-0.0555 -0.231511,-0.0748 -0.135048,-0.0193 -0.282154,-0.0193 -0.178456,0 -0.397909,0.0482 -0.219453,0.0458 -0.453376,0.13505 h -0.02412 v -0.46061 q 0.132637,-0.0362 0.38344,-0.0796 0.250804,-0.0434 0.494373,-0.0434 0.284565,0 0.494372,0.0482 0.212218,0.0458 0.366559,0.15916 0.151929,0.11094 0.231511,0.28698 0.07958,0.17605 0.07958,0.4365 z m -0.450964,-0.66318 v -0.75 q -0.207396,0.012 -0.489549,0.0362 -0.279743,0.0241 -0.44373,0.0699 -0.195337,0.0555 -0.315916,0.17363 -0.120578,0.11575 -0.120578,0.32074 0,0.23151 0.139871,0.34968 0.139871,0.11575 0.426848,0.11575 0.238746,0 0.436495,-0.0916 0.197749,-0.0941 0.366559,-0.22427 z m 3.576361,0.66318 h -0.453375 v -1.53376 q 0,-0.18569 -0.02171,-0.34727 -0.0217,-0.16398 -0.07958,-0.25562 -0.06029,-0.10129 -0.173634,-0.14952 -0.113344,-0.0506 -0.294211,-0.0506 -0.185691,0 -0.388264,0.0916 -0.202572,0.0916 -0.388263,0.23393 v 2.01125 h -0.453375 v -2.69373 h 0.453375 v 0.29904 q 0.212219,-0.17605 0.438906,-0.27492 0.226688,-0.0989 0.465434,-0.0989 0.436494,0 0.665594,0.26286 0.229099,0.26287 0.229099,0.75724 z m 3.057874,-0.30627 q 0,0.68489 -0.311093,1.00562 -0.311093,0.32074 -0.957394,0.32074 -0.21463,0 -0.419614,-0.0314 -0.202572,-0.0289 -0.400321,-0.0844 v -0.46302 h 0.02412 q 0.110932,0.0434 0.35209,0.10611 0.241157,0.0651 0.482314,0.0651 0.231511,0 0.38344,-0.0555 0.151929,-0.0555 0.236334,-0.15434 0.08441,-0.0941 0.120579,-0.22669 0.03617,-0.13263 0.03617,-0.29662 v -0.24598 q -0.204983,0.16399 -0.393086,0.24598 -0.185691,0.0796 -0.47508,0.0796 -0.482314,0 -0.76688,-0.34726 -0.282154,-0.34968 -0.282154,-0.98393 0,-0.34726 0.09646,-0.59807 0.09887,-0.25321 0.267685,-0.43649 0.156752,-0.17122 0.381028,-0.26527 0.224276,-0.0965 0.446141,-0.0965 0.233923,0 0.390675,0.0482 0.159164,0.0458 0.335208,0.14229 l 0.02894,-0.11576 h 0.424437 z m -0.453376,-0.43408 v -1.46865 q -0.180868,-0.082 -0.33762,-0.11576 -0.15434,-0.0362 -0.308681,-0.0362 -0.373794,0 -0.588424,0.2508 -0.21463,0.25081 -0.21463,0.7283 0,0.45337 0.159164,0.6873 0.159164,0.23392 0.528134,0.23392 0.197749,0 0.395498,-0.0748 0.200161,-0.0772 0.366559,-0.20498 z m 3.600478,-0.55949 H 27.61048 q 0,0.24839 0.07476,0.43408 0.07476,0.18328 0.204983,0.30145 0.125402,0.11576 0.296624,0.17363 0.173633,0.0579 0.381028,0.0579 0.274919,0 0.55225,-0.10852 0.279743,-0.11093 0.39791,-0.21704 h 0.02412 v 0.49437 q -0.229099,0.0965 -0.467845,0.16158 -0.238745,0.0651 -0.501607,0.0651 -0.670417,0 -1.046622,-0.36174 -0.376205,-0.36414 -0.376205,-1.03215 0,-0.66077 0.359324,-1.04903 0.361736,-0.38827 0.950159,-0.38827 0.545016,0 0.839228,0.31833 0.296623,0.31833 0.296623,0.90434 z m -0.441318,-0.34727 q -0.0024,-0.35691 -0.180868,-0.55225 -0.176044,-0.19533 -0.53778,-0.19533 -0.364148,0 -0.581189,0.21463 -0.21463,0.21463 -0.243569,0.53295 z"
       id="text24"
       style="font-size:4.9389px;line-height:4;-inkscape-font-specification:sans-serif;text-align:center;text-anchor:middle;stroke-width:0.264583"
       aria-label="range" />
    <text
       xml:space="preserve"
       style="font-size:4.9389px;line-height:33;font-family:sans-serif;-inkscape-font-specification:sans-serif;text-align:center;text-anchor:middle;fill:#4a4a4a;fill-opacity:1;stroke:#000000;stroke-width:0.264583;stroke-opacity:1"
       x="23.76556"
       y="239.96764"
       id="text27"><tspan
         sodipodi:role="line"
         id="tspan27"
         style="stroke-width:0.264583;line-height:33"
         x="23.76556"
         y="239.96764" /></text>
    <text
       xml:space="preserve"
       transform="matrix(0.26458333,0,0,0.26458333,0,168.49998)"
       id="text28"
       style="font-size:18.6667px;line-height:33;font-family:sans-serif;-inkscape-font-specification:sans-serif;text-align:center;text-anchor:middle;white-space:pre;shape-inside:url(#rect28);fill:#4a4a4a;fill-opacity:1;stroke:#000000;stroke-opacity:1"><tspan
         sodipodi:role="line"
         id="tspan28"
         style="line-height:33"></tspan></text>
    <text
       xml:space="preserve"
       style="font-style:normal;font-variant:normal;font-weight:normal;font-stretch:normal;font-size:4.93889px;line-height:3;font-family:sans;-inkscape-font-specification:sans;text-align:center;text-anchor:middle;fill:#000000;fill-opacity:1;stroke:none;stroke-width:0.264583;stroke-opacity:1"
       x="50.950619"
       y="215.7653"
       id="text29"><tspan
         sodipodi:role="line"
         style="font-style:normal;font-variant:normal;font-weight:normal;font-stretch:normal;font-size:4.93889px;line-height:3;font-family:sans;-inkscape-font-specification:sans;fill:#000000;fill-opacity:1;stroke:none;stroke-width:0.264583"
         x="50.950619"
         y="215.7653"
         id="tspan30">prob</tspan></text>
    <text
       xml:space="preserve"
       style="font-style:normal;font-variant:normal;font-weight:normal;font-stretch:normal;font-size:4.93889px;line-height:3;font-family:sans;-inkscape-font-specification:sans;text-align:center;text-anchor:middle;fill:#000000;fill-opacity:1;stroke:none;stroke-width:0.264583;stroke-opacity:1"
       x="78.687057"
       y="187.10741"
       id="text29-0"><tspan
         sodipodi:role="line"
         style="font-style:normal;font-variant:normal;font-weight:normal;font-stretch:normal;font-size:4.93889px;line-height:3;font-family:sans;-inkscape-font-specification:sans;fill:#000000;fill-opacity:1;stroke:none;stroke-width:0.264583"
         x="78.687057"
         y="187.10741"
         id="tspan30-0">key</tspan></text>
    <text
       xml:space="preserve"
       transform="matrix(0.26458333,0,0,0.26458333,0,168.49998)"
       id="text31"
       style="fill:#000000;line-height:3;font-size:18.66666667px;-inkscape-font-specification:sans;font-family:sans;text-anchor:middle;text-align:center;stroke:none;stroke-opacity:1;fill-opacity:1;font-weight:normal;font-style:normal;font-stretch:normal;font-variant:normal;white-space:pre;shape-inside:url(#rect31)"><tspan
         sodipodi:role="line"
         id="tspan31"></tspan></text>
    <text
       xml:space="preserve"
       style="font-style:normal;font-variant:normal;font-weight:normal;font-stretch:normal;font-size:4.9389px;line-height:3;font-family:sans;-inkscape-font-specification:sans;text-align:center;text-anchor:middle;fill:#000000;fill-opacity:1;stroke:none;stroke-width:0.264583;stroke-opacity:1"
       x="78.819588"
       y="210.978"
       id="text32"><tspan
         sodipodi:role="line"
         id="tspan32"
         style="stroke-width:0.264583"
         x="78.819588"
         y="210.978">glide</tspan></text>
    <text
       xml:space="preserve"
       transform="matrix(0.26458333,0,0,0.26458333,0,168.49998)"
       id="text37"
       style="fill:#000000;line-height:3;font-size:18.66666667px;-inkscape-font-specification:sans;font-family:sans;text-anchor:middle;text-align:center;stroke:none;stroke-opacity:1;fill-opacity:1;font-weight:normal;font-style:normal;font-stretch:normal;font-variant:normal;white-space:pre;shape-inside:url(#rect37)"><tspan
         sodipodi:role="line"
         id="tspan37"></tspan></text>
    <text
       xml:space="preserve"
       style="font-style:normal;font-variant:normal;font-weight:normal;font-stretch:normal;font-size:4.9389px;line-height:3;font-family:sans;-inkscape-font-specification:sans;text-align:center;text-anchor:middle;fill:#000000;fill-opacity:1;stroke:none;stroke-width:0.264583;stroke-opacity:1"
       x="51.634525"
       y="243.0452"
       id="text38"><tspan
         sodipodi:role="line"
         id="tspan38"
         style="stroke-width:0.264583"
         x="51.634525"
         y="243.0452">repetitive</tspan></text>
    <text
       xml:space="preserve"
       style="font-style:normal;font-variant:normal;font-weight:normal;font-stretch:normal;font-size:4.9389px;line-height:3;font-family:sans;-inkscape-font-specification:sans;text-align:center;text-anchor:middle;fill:#000000;fill-opacity:1;stroke:none;stroke-width:0.264583;stroke-opacity:1"
       x="78.819588"
       y="216.0311"
       id="text41"><tspan
         sodipodi:role="line"
         id="tspan41"
         style="stroke-width:0.264583"
         x="78.819588"
         y="216.0311">prob</tspan></text>
    <text
       xml:space="preserve"
       style="font-style:normal;font-variant:normal;font-weight:normal;font-stretch:normal;font-size:4.9389px;line-height:3;font-family:sans;-inkscape-font-specification:sans;text-align:center;text-anchor:middle;fill:#000000;fill-opacity:1;stroke:none;stroke-width:0.264583;stroke-opacity:1"
       x="51.463554"
       y="210.55991"
       id="text42"><tspan
         sodipodi:role="line"
         id="tspan42"
         style="stroke-width:0.264583"
         x="51.463554"
         y="210.55991">new note</tspan></text>
    <text
       xml:space="preserve"
       transform="matrix(0.26458333,0,0,0.26458333,0,168.49998)"
       id="text43"
       style="fill:#000000;line-height:3;font-size:18.66666667px;-inkscape-font-specification:sans;font-family:sans;text-anchor:middle;text-align:center;stroke:none;stroke-opacity:1;fill-opacity:1;font-weight:normal;font-style:normal;font-stretch:normal;font-variant:normal;white-space:pre;shape-inside:url(#rect43)"><tspan
         sodipodi:role="line"
         id="tspan43"></tspan></text>
    <text
       xml:space="preserve"
       style="font-style:normal;font-variant:normal;font-weight:normal;font-stretch:normal;font-size:3.52778px;line-height:3;font-family:sans;-inkscape-font-specification:sans;text-align:center;text-anchor:middle;fill:#000000;fill-opacity:1;stroke:none;stroke-width:0.264583;stroke-opacity:1"
       x="51.634533"
       y="180.1263"
       id="text44"><tspan
         sodipodi:role="line"
         style="font-style:normal;font-variant:normal;font-weight:normal;font-stretch:normal;font-size:3.52778px;font-family:Tahoma;-inkscape-font-specification:Tahoma;stroke-width:0.264583"
         x="51.634533"
         y="180.1263"
         id="tspan45">generate wild melodies</tspan></text>
  </g>
  <g
     inkscape:groupmode="layer"
     id="layer2"
     inkscape:label="components">
    <circle
       style="display:inline;opacity:1;vector-effect:none;fill:#ff0000;fill-opacity:1;fill-rule:evenodd;stroke:none;stroke-width:1;stroke-linecap:butt;stroke-linejoin:miter;stroke-miterlimit:4;stroke-dasharray:none;stroke-dashoffset:0;stroke-opacity:1;paint-order:normal"
       id="path4954"
       cx="22.799999"
       cy="26"
       r="4"
       inkscape:label="range" />
    <circle
       style="display:inline;vector-effect:none;fill:#ff0000;fill-opacity:1;fill-rule:evenodd;stroke:none;stroke-width:1;stroke-linecap:butt;stroke-linejoin:miter;stroke-miterlimit:4;stroke-dasharray:none;stroke-dashoffset:0;stroke-opacity:1;paint-order:normal"
       id="path4954-7"
       cx="50.799999"
       cy="26"
       r="4"
       inkscape:label="scale" />
    <circle
       style="display:inline;vector-effect:none;fill:#ff0000;fill-opacity:1;fill-rule:evenodd;stroke:none;stroke-width:1;stroke-linecap:butt;stroke-linejoin:miter;stroke-miterlimit:4;stroke-dasharray:none;stroke-dashoffset:0;stroke-opacity:1;paint-order:normal"
       id="path4954-7-5"
       cx="78"
       cy="26"
       r="4"
       inkscape:label="disjunct" />
    <circle
       style="display:inline;vector-effect:none;fill:#ff0000;fill-opacity:1;fill-rule:evenodd;stroke:none;stroke-width:1;stroke-linecap:butt;stroke-linejoin:miter;stroke-miterlimit:4;stroke-dasharray:none;stroke-dashoffset:0;stroke-opacity:1;paint-order:normal"
       id="path4954-0"
       cx="22.799999"
       cy="54"
       r="4"
       inkscape:label="range" />
    <circle
       style="display:inline;vector-effect:none;fill:#ff0000;fill-opacity:1;fill-rule:evenodd;stroke:none;stroke-width:1;stroke-linecap:butt;stroke-linejoin:miter;stroke-miterlimit:4;stroke-dasharray:none;stroke-dashoffset:0;stroke-opacity:1;paint-order:normal"
       id="path4954-0-7"
       cx="78.22628"
       cy="82"
       r="4"
       inkscape:label="range" />
    <circle
       style="display:inline;vector-effect:none;fill:#ff0000;fill-opacity:1;fill-rule:evenodd;stroke:none;stroke-width:1;stroke-linecap:butt;stroke-linejoin:miter;stroke-miterlimit:4;stroke-dasharray:none;stroke-dashoffset:0;stroke-opacity:1;paint-order:normal"
       id="path4954-0-7-8"
       cx="22.903208"
       cy="82"
       r="4"
       inkscape:label="range" />
    <circle
       style="display:inline;vector-effect:none;fill:#ff0000;fill-opacity:1;fill-rule:evenodd;stroke:none;stroke-width:1;stroke-linecap:butt;stroke-linejoin:miter;stroke-miterlimit:4;stroke-dasharray:none;stroke-dashoffset:0;stroke-opacity:1;paint-order:normal"
       id="path4954-7-5-4"
       cx="77.999992"
       cy="54"
       r="4"
       inkscape:label="disjunct" />
    <circle
       style="display:inline;vector-effect:none;fill:#ff0000;fill-opacity:1;fill-rule:evenodd;stroke:none;stroke-width:1;stroke-linecap:butt;stroke-linejoin:miter;stroke-miterlimit:4;stroke-dasharray:none;stroke-dashoffset:0;stroke-opacity:1;paint-order:normal"
       id="path4954-1"
       cx="50.799999"
       cy="54"
       inkscape:label="speed"
       r="4" />
    <circle
       style="display:inline;vector-effect:none;fill:#ff0000;fill-opacity:1;fill-rule:evenodd;stroke:none;stroke-width:1;stroke-linecap:butt;stroke-linejoin:miter;stroke-miterlimit:4;stroke-dasharray:none;stroke-dashoffset:0;stroke-opacity:1;paint-order:normal"
       id="path4954-1-0"
       cx="51.576275"
       cy="82"
       inkscape:label="speed"
       r="4" />
    <circle
       r="4"
       cy="105"
       cx="15.721539"
       id="circle4956"
       style="display:inline;opacity:1;vector-effect:none;fill:#00ff00;fill-opacity:1;fill-rule:evenodd;stroke:none;stroke-width:1;stroke-linecap:butt;stroke-linejoin:miter;stroke-miterlimit:4;stroke-dasharray:none;stroke-dashoffset:0;stroke-opacity:1;paint-order:normal"
       inkscape:label="gin" />
    <circle
       style="display:inline;opacity:1;vector-effect:none;fill:#0000ff;fill-opacity:1;fill-rule:evenodd;stroke:none;stroke-width:1;stroke-linecap:butt;stroke-linejoin:miter;stroke-miterlimit:4;stroke-dasharray:none;stroke-dashoffset:0;stroke-opacity:1;paint-order:normal"
       id="circle4958"
       cx="63.7201"
       cy="105"
       r="4"
       inkscape:label="gout" />
    <circle
       style="display:inline;vector-effect:none;fill:#0000ff;fill-opacity:1;fill-rule:evenodd;stroke:none;stroke-width:1;stroke-linecap:butt;stroke-linejoin:miter;stroke-miterlimit:4;stroke-dasharray:none;stroke-dashoffset:0;stroke-opacity:1;paint-order:normal"
       id="circle4958-5"
       cx="84.777069"
       cy="105"
       r="4"
       inkscape:label="vout" />
    <text
       xml:space="preserve"
       style="font-style:normal;font-variant:normal;font-weight:normal;font-stretch:normal;font-size:4.9389px;line-height:3;font-family:sans;-inkscape-font-specification:sans;text-align:center;text-anchor:middle;fill:#000000;fill-opacity:1;stroke:none;stroke-width:0.264583;stroke-opacity:1"
       x="22.910686"
       y="69.50956"
       id="text33"><tspan
         sodipodi:role="line"
         style="stroke-width:0.264583"
         x="22.910686"
         y="69.50956"
         id="tspan34">passing</tspan></text>
    <text
       xml:space="preserve"
       transform="scale(0.26458333)"
       id="text35"
       style="fill:#000000;line-height:3;font-size:18.66666667px;-inkscape-font-specification:sans;font-family:sans;text-anchor:middle;text-align:center;stroke:none;stroke-opacity:1;fill-opacity:1;font-weight:normal;font-style:normal;font-stretch:normal;font-variant:normal;white-space:pre;shape-inside:url(#rect35)"><tspan
         sodipodi:role="line"
         id="tspan35"></tspan></text>
    <text
       xml:space="preserve"
       style="font-style:normal;font-variant:normal;font-weight:normal;font-stretch:normal;font-size:4.9389px;line-height:3;font-family:sans;-inkscape-font-specification:sans;text-align:center;text-anchor:middle;fill:#000000;fill-opacity:1;stroke:none;stroke-width:0.264583;stroke-opacity:1"
       x="78.306679"
       y="69.586922"
       id="text36"><tspan
         sodipodi:role="line"
         id="tspan36"
         style="stroke-width:0.264583"
         x="78.306679"
         y="69.586922">glide</tspan></text>
    <text
       xml:space="preserve"
       style="font-style:normal;font-variant:normal;font-weight:normal;font-stretch:normal;font-size:4.9389px;line-height:3;font-family:sans;-inkscape-font-specification:sans;text-align:center;text-anchor:middle;fill:#000000;fill-opacity:1;stroke:none;stroke-width:0.264583;stroke-opacity:1"
       x="23.423611"
       y="75.058136"
       id="text39"><tspan
         sodipodi:role="line"
         id="tspan39"
         style="stroke-width:0.264583"
         x="23.423611"
         y="75.058136">tones %</tspan></text>
    <text
       xml:space="preserve"
       style="font-style:normal;font-variant:normal;font-weight:normal;font-stretch:normal;font-size:4.9389px;line-height:3;font-family:sans;-inkscape-font-specification:sans;text-align:center;text-anchor:middle;fill:#000000;fill-opacity:1;stroke:none;stroke-width:0.264583;stroke-opacity:1"
       x="78.648621"
       y="75.229111"
       id="text40"><tspan
         sodipodi:role="line"
         id="tspan40"
         style="stroke-width:0.264583"
         x="78.648621"
         y="75.229111">amount</tspan></text>
  </g>
</svg>
